<mxfile host="app.diagrams.net" agent="Mozilla/5.0 (Windows NT 10.0; Win64; x64) AppleWebKit/537.36 (KHTML, like Gecko) Chrome/129.0.0.0 Safari/537.36" version="24.7.16">
  <diagram name="Page-1" id="kEvR1JvHd_XGPh8nsQWs">
    <mxGraphModel dx="1712" dy="655" grid="1" gridSize="10" guides="1" tooltips="1" connect="1" arrows="1" fold="1" page="1" pageScale="1" pageWidth="850" pageHeight="1100" math="0" shadow="0">
      <root>
        <mxCell id="0" />
        <mxCell id="1" parent="0" />
        <mxCell id="yDsghZK9M2VO5eI2q2oZ-99" style="edgeStyle=orthogonalEdgeStyle;rounded=0;orthogonalLoop=1;jettySize=auto;html=1;exitX=0.75;exitY=1;exitDx=0;exitDy=0;entryX=0;entryY=0.5;entryDx=0;entryDy=0;endArrow=none;endFill=0;" parent="1" source="xWwocuTpsRwCeuhxyE5T-1" target="yDsghZK9M2VO5eI2q2oZ-77" edge="1">
          <mxGeometry relative="1" as="geometry">
            <Array as="points">
              <mxPoint x="-365" y="550" />
              <mxPoint x="-300" y="550" />
              <mxPoint x="-300" y="863" />
            </Array>
          </mxGeometry>
        </mxCell>
        <mxCell id="xWwocuTpsRwCeuhxyE5T-1" value="user" style="rounded=1;arcSize=10;whiteSpace=wrap;html=1;align=center;" parent="1" vertex="1">
          <mxGeometry x="-455" y="390" width="120" height="40" as="geometry" />
        </mxCell>
        <mxCell id="xWwocuTpsRwCeuhxyE5T-51" style="edgeStyle=orthogonalEdgeStyle;rounded=0;orthogonalLoop=1;jettySize=auto;html=1;exitX=1;exitY=0.5;exitDx=0;exitDy=0;entryX=0;entryY=0.5;entryDx=0;entryDy=0;endArrow=none;endFill=0;" parent="1" source="xWwocuTpsRwCeuhxyE5T-2" target="xWwocuTpsRwCeuhxyE5T-49" edge="1">
          <mxGeometry relative="1" as="geometry" />
        </mxCell>
        <mxCell id="xWwocuTpsRwCeuhxyE5T-2" value="ubication" style="rounded=1;arcSize=10;whiteSpace=wrap;html=1;align=center;" parent="1" vertex="1">
          <mxGeometry x="-155" y="390" width="120" height="40" as="geometry" />
        </mxCell>
        <mxCell id="yDsghZK9M2VO5eI2q2oZ-66" style="edgeStyle=orthogonalEdgeStyle;rounded=0;orthogonalLoop=1;jettySize=auto;html=1;exitX=1;exitY=0.5;exitDx=0;exitDy=0;entryX=0;entryY=0.5;entryDx=0;entryDy=0;endArrow=none;endFill=0;" parent="1" source="xWwocuTpsRwCeuhxyE5T-3" target="xWwocuTpsRwCeuhxyE5T-11" edge="1">
          <mxGeometry relative="1" as="geometry" />
        </mxCell>
        <mxCell id="yDsghZK9M2VO5eI2q2oZ-67" style="edgeStyle=orthogonalEdgeStyle;rounded=0;orthogonalLoop=1;jettySize=auto;html=1;exitX=0.5;exitY=1;exitDx=0;exitDy=0;entryX=0.5;entryY=0;entryDx=0;entryDy=0;endArrow=none;endFill=0;" parent="1" source="xWwocuTpsRwCeuhxyE5T-3" target="xWwocuTpsRwCeuhxyE5T-9" edge="1">
          <mxGeometry relative="1" as="geometry" />
        </mxCell>
        <mxCell id="xWwocuTpsRwCeuhxyE5T-3" value="images" style="rounded=1;arcSize=10;whiteSpace=wrap;html=1;align=center;" parent="1" vertex="1">
          <mxGeometry x="28" y="488" width="100" height="40" as="geometry" />
        </mxCell>
        <mxCell id="yDsghZK9M2VO5eI2q2oZ-58" style="edgeStyle=orthogonalEdgeStyle;rounded=0;orthogonalLoop=1;jettySize=auto;html=1;exitX=1;exitY=0.5;exitDx=0;exitDy=0;entryX=0.25;entryY=0;entryDx=0;entryDy=0;endArrow=none;endFill=0;" parent="1" source="xWwocuTpsRwCeuhxyE5T-7" target="xWwocuTpsRwCeuhxyE5T-1" edge="1">
          <mxGeometry relative="1" as="geometry" />
        </mxCell>
        <mxCell id="xWwocuTpsRwCeuhxyE5T-7" value="cod_user" style="ellipse;whiteSpace=wrap;html=1;align=center;fontStyle=4;" parent="1" vertex="1">
          <mxGeometry x="-596" y="290" width="100" height="40" as="geometry" />
        </mxCell>
        <mxCell id="xWwocuTpsRwCeuhxyE5T-21" style="edgeStyle=orthogonalEdgeStyle;rounded=0;orthogonalLoop=1;jettySize=auto;html=1;exitX=0.5;exitY=1;exitDx=0;exitDy=0;endArrow=none;endFill=0;entryX=0.25;entryY=0;entryDx=0;entryDy=0;" parent="1" source="xWwocuTpsRwCeuhxyE5T-8" target="xWwocuTpsRwCeuhxyE5T-2" edge="1">
          <mxGeometry relative="1" as="geometry" />
        </mxCell>
        <mxCell id="xWwocuTpsRwCeuhxyE5T-8" value="cod_ubi" style="ellipse;whiteSpace=wrap;html=1;align=center;fontStyle=4;" parent="1" vertex="1">
          <mxGeometry x="-185" y="310" width="120" height="40" as="geometry" />
        </mxCell>
        <mxCell id="xWwocuTpsRwCeuhxyE5T-9" value="cod_image" style="ellipse;whiteSpace=wrap;html=1;align=center;fontStyle=4;" parent="1" vertex="1">
          <mxGeometry x="28" y="548" width="100" height="40" as="geometry" />
        </mxCell>
        <mxCell id="yDsghZK9M2VO5eI2q2oZ-17" style="edgeStyle=orthogonalEdgeStyle;rounded=0;orthogonalLoop=1;jettySize=auto;html=1;exitX=1;exitY=0.5;exitDx=0;exitDy=0;entryX=0;entryY=0;entryDx=0;entryDy=0;endArrow=none;endFill=0;" parent="1" source="xWwocuTpsRwCeuhxyE5T-10" target="xWwocuTpsRwCeuhxyE5T-1" edge="1">
          <mxGeometry relative="1" as="geometry" />
        </mxCell>
        <mxCell id="xWwocuTpsRwCeuhxyE5T-10" value="descripcion" style="ellipse;whiteSpace=wrap;html=1;align=center;" parent="1" vertex="1">
          <mxGeometry x="-593" y="339" width="100" height="40" as="geometry" />
        </mxCell>
        <mxCell id="xWwocuTpsRwCeuhxyE5T-11" value="image" style="ellipse;whiteSpace=wrap;html=1;align=center;" parent="1" vertex="1">
          <mxGeometry x="158" y="488" width="100" height="40" as="geometry" />
        </mxCell>
        <mxCell id="xWwocuTpsRwCeuhxyE5T-36" style="edgeStyle=orthogonalEdgeStyle;rounded=0;orthogonalLoop=1;jettySize=auto;html=1;exitX=0;exitY=1;exitDx=0;exitDy=0;entryX=0.75;entryY=0;entryDx=0;entryDy=0;endArrow=none;endFill=0;" parent="1" source="xWwocuTpsRwCeuhxyE5T-12" target="xWwocuTpsRwCeuhxyE5T-2" edge="1">
          <mxGeometry relative="1" as="geometry" />
        </mxCell>
        <mxCell id="xWwocuTpsRwCeuhxyE5T-12" value="country" style="ellipse;whiteSpace=wrap;html=1;align=center;" parent="1" vertex="1">
          <mxGeometry x="-45" y="318" width="100" height="40" as="geometry" />
        </mxCell>
        <mxCell id="xWwocuTpsRwCeuhxyE5T-33" style="edgeStyle=orthogonalEdgeStyle;rounded=0;orthogonalLoop=1;jettySize=auto;html=1;exitX=1;exitY=0.5;exitDx=0;exitDy=0;entryX=0;entryY=0.5;entryDx=0;entryDy=0;endArrow=none;endFill=0;spacing=2;arcSize=20;" parent="1" source="xWwocuTpsRwCeuhxyE5T-31" target="xWwocuTpsRwCeuhxyE5T-2" edge="1">
          <mxGeometry relative="1" as="geometry" />
        </mxCell>
        <mxCell id="xWwocuTpsRwCeuhxyE5T-45" style="edgeStyle=orthogonalEdgeStyle;rounded=0;orthogonalLoop=1;jettySize=auto;html=1;exitX=0;exitY=0.5;exitDx=0;exitDy=0;entryX=1;entryY=0.5;entryDx=0;entryDy=0;endArrow=none;endFill=0;strokeColor=default;" parent="1" source="xWwocuTpsRwCeuhxyE5T-31" target="xWwocuTpsRwCeuhxyE5T-1" edge="1">
          <mxGeometry relative="1" as="geometry" />
        </mxCell>
        <mxCell id="xWwocuTpsRwCeuhxyE5T-31" value="us_ub" style="rhombus;whiteSpace=wrap;html=1;rounded=1;arcSize=10;" parent="1" vertex="1">
          <mxGeometry x="-285" y="380" width="80" height="60" as="geometry" />
        </mxCell>
        <mxCell id="xWwocuTpsRwCeuhxyE5T-43" value="1:N" style="text;html=1;align=center;verticalAlign=middle;resizable=0;points=[];autosize=1;strokeColor=none;fillColor=none;" parent="1" vertex="1">
          <mxGeometry x="-265" y="360" width="40" height="30" as="geometry" />
        </mxCell>
        <mxCell id="yDsghZK9M2VO5eI2q2oZ-68" style="edgeStyle=orthogonalEdgeStyle;rounded=0;orthogonalLoop=1;jettySize=auto;html=1;exitX=0.5;exitY=1;exitDx=0;exitDy=0;entryX=0.5;entryY=0;entryDx=0;entryDy=0;endArrow=none;endFill=0;" parent="1" source="xWwocuTpsRwCeuhxyE5T-49" target="xWwocuTpsRwCeuhxyE5T-3" edge="1">
          <mxGeometry relative="1" as="geometry" />
        </mxCell>
        <mxCell id="xWwocuTpsRwCeuhxyE5T-49" value="ub_im" style="rhombus;whiteSpace=wrap;html=1;rounded=1;arcSize=10;" parent="1" vertex="1">
          <mxGeometry x="38" y="380" width="80" height="60" as="geometry" />
        </mxCell>
        <mxCell id="xWwocuTpsRwCeuhxyE5T-52" value="1:N" style="text;html=1;align=center;verticalAlign=middle;resizable=0;points=[];autosize=1;strokeColor=none;fillColor=none;" parent="1" vertex="1">
          <mxGeometry x="65" y="360" width="40" height="30" as="geometry" />
        </mxCell>
        <mxCell id="xWwocuTpsRwCeuhxyE5T-60" value="(1,1)" style="text;html=1;align=center;verticalAlign=middle;resizable=0;points=[];autosize=1;strokeColor=none;fillColor=none;fontSize=10;" parent="1" vertex="1">
          <mxGeometry x="-335" y="385" width="40" height="30" as="geometry" />
        </mxCell>
        <mxCell id="xWwocuTpsRwCeuhxyE5T-61" value="(0,N)" style="text;html=1;align=center;verticalAlign=middle;resizable=0;points=[];autosize=1;strokeColor=none;fillColor=none;fontSize=10;" parent="1" vertex="1">
          <mxGeometry x="-200" y="385" width="50" height="30" as="geometry" />
        </mxCell>
        <mxCell id="xWwocuTpsRwCeuhxyE5T-62" value="(1,1)" style="text;html=1;align=center;verticalAlign=middle;resizable=0;points=[];autosize=1;strokeColor=none;fillColor=none;fontSize=10;" parent="1" vertex="1">
          <mxGeometry x="-35" y="385" width="40" height="30" as="geometry" />
        </mxCell>
        <mxCell id="xWwocuTpsRwCeuhxyE5T-63" value="(0,N)" style="text;html=1;align=center;verticalAlign=middle;resizable=0;points=[];autosize=1;strokeColor=none;fillColor=none;fontSize=10;" parent="1" vertex="1">
          <mxGeometry x="-20" y="483" width="50" height="30" as="geometry" />
        </mxCell>
        <mxCell id="yDsghZK9M2VO5eI2q2oZ-13" value="" style="edgeStyle=orthogonalEdgeStyle;rounded=0;orthogonalLoop=1;jettySize=auto;html=1;endArrow=none;endFill=0;" parent="1" source="yDsghZK9M2VO5eI2q2oZ-2" target="yDsghZK9M2VO5eI2q2oZ-12" edge="1">
          <mxGeometry relative="1" as="geometry" />
        </mxCell>
        <mxCell id="yDsghZK9M2VO5eI2q2oZ-2" value="state" style="rounded=1;arcSize=10;whiteSpace=wrap;html=1;align=center;" parent="1" vertex="1">
          <mxGeometry x="-475" y="624" width="100" height="40" as="geometry" />
        </mxCell>
        <mxCell id="yDsghZK9M2VO5eI2q2oZ-4" style="edgeStyle=orthogonalEdgeStyle;rounded=0;orthogonalLoop=1;jettySize=auto;html=1;exitX=0.5;exitY=0;exitDx=0;exitDy=0;entryX=0.5;entryY=1;entryDx=0;entryDy=0;endArrow=none;endFill=0;" parent="1" source="yDsghZK9M2VO5eI2q2oZ-3" target="yDsghZK9M2VO5eI2q2oZ-2" edge="1">
          <mxGeometry relative="1" as="geometry" />
        </mxCell>
        <mxCell id="yDsghZK9M2VO5eI2q2oZ-3" value="cod_state" style="ellipse;whiteSpace=wrap;html=1;align=center;fontStyle=4;" parent="1" vertex="1">
          <mxGeometry x="-475" y="694" width="100" height="40" as="geometry" />
        </mxCell>
        <mxCell id="yDsghZK9M2VO5eI2q2oZ-6" style="edgeStyle=orthogonalEdgeStyle;rounded=0;orthogonalLoop=1;jettySize=auto;html=1;exitX=1;exitY=0.5;exitDx=0;exitDy=0;entryX=0;entryY=0.5;entryDx=0;entryDy=0;endArrow=none;endFill=0;" parent="1" source="yDsghZK9M2VO5eI2q2oZ-5" target="yDsghZK9M2VO5eI2q2oZ-2" edge="1">
          <mxGeometry relative="1" as="geometry" />
        </mxCell>
        <mxCell id="yDsghZK9M2VO5eI2q2oZ-5" value="state" style="ellipse;whiteSpace=wrap;html=1;align=center;" parent="1" vertex="1">
          <mxGeometry x="-610" y="624" width="100" height="40" as="geometry" />
        </mxCell>
        <mxCell id="yDsghZK9M2VO5eI2q2oZ-9" style="edgeStyle=orthogonalEdgeStyle;rounded=0;orthogonalLoop=1;jettySize=auto;html=1;exitX=1;exitY=0.5;exitDx=0;exitDy=0;entryX=0;entryY=0.5;entryDx=0;entryDy=0;endArrow=none;endFill=0;" parent="1" source="yDsghZK9M2VO5eI2q2oZ-7" target="xWwocuTpsRwCeuhxyE5T-1" edge="1">
          <mxGeometry relative="1" as="geometry" />
        </mxCell>
        <mxCell id="yDsghZK9M2VO5eI2q2oZ-7" value="username" style="ellipse;whiteSpace=wrap;html=1;align=center;" parent="1" vertex="1">
          <mxGeometry x="-595" y="390" width="100" height="40" as="geometry" />
        </mxCell>
        <mxCell id="yDsghZK9M2VO5eI2q2oZ-97" style="edgeStyle=orthogonalEdgeStyle;rounded=0;orthogonalLoop=1;jettySize=auto;html=1;exitX=1;exitY=0.5;exitDx=0;exitDy=0;entryX=0;entryY=1;entryDx=0;entryDy=0;endArrow=none;endFill=0;" parent="1" source="yDsghZK9M2VO5eI2q2oZ-8" target="xWwocuTpsRwCeuhxyE5T-1" edge="1">
          <mxGeometry relative="1" as="geometry" />
        </mxCell>
        <mxCell id="yDsghZK9M2VO5eI2q2oZ-8" value="password" style="ellipse;whiteSpace=wrap;html=1;align=center;" parent="1" vertex="1">
          <mxGeometry x="-590" y="456" width="100" height="40" as="geometry" />
        </mxCell>
        <mxCell id="yDsghZK9M2VO5eI2q2oZ-96" style="edgeStyle=orthogonalEdgeStyle;rounded=0;orthogonalLoop=1;jettySize=auto;html=1;exitX=0.5;exitY=0;exitDx=0;exitDy=0;entryX=0.25;entryY=1;entryDx=0;entryDy=0;endArrow=none;endFill=0;" parent="1" source="yDsghZK9M2VO5eI2q2oZ-12" target="xWwocuTpsRwCeuhxyE5T-1" edge="1">
          <mxGeometry relative="1" as="geometry" />
        </mxCell>
        <mxCell id="yDsghZK9M2VO5eI2q2oZ-12" value="us_sta" style="rhombus;whiteSpace=wrap;html=1;rounded=1;arcSize=10;" parent="1" vertex="1">
          <mxGeometry x="-465" y="494" width="80" height="80" as="geometry" />
        </mxCell>
        <mxCell id="yDsghZK9M2VO5eI2q2oZ-18" value="(1,N)" style="text;html=1;align=center;verticalAlign=middle;resizable=0;points=[];autosize=1;strokeColor=none;fillColor=none;fontSize=10;" parent="1" vertex="1">
          <mxGeometry x="-426" y="426" width="50" height="30" as="geometry" />
        </mxCell>
        <mxCell id="yDsghZK9M2VO5eI2q2oZ-19" value="(1,1)" style="text;html=1;align=center;verticalAlign=middle;resizable=0;points=[];autosize=1;strokeColor=none;fillColor=none;fontSize=10;" parent="1" vertex="1">
          <mxGeometry x="-428" y="594" width="40" height="30" as="geometry" />
        </mxCell>
        <mxCell id="yDsghZK9M2VO5eI2q2oZ-20" value="1:N" style="text;html=1;align=center;verticalAlign=middle;resizable=0;points=[];autosize=1;strokeColor=none;fillColor=none;" parent="1" vertex="1">
          <mxGeometry x="-515" y="520" width="40" height="30" as="geometry" />
        </mxCell>
        <mxCell id="yDsghZK9M2VO5eI2q2oZ-36" style="edgeStyle=orthogonalEdgeStyle;rounded=0;orthogonalLoop=1;jettySize=auto;html=1;exitX=0;exitY=0.5;exitDx=0;exitDy=0;entryX=1;entryY=1;entryDx=0;entryDy=0;endArrow=none;endFill=0;" parent="1" source="yDsghZK9M2VO5eI2q2oZ-35" target="xWwocuTpsRwCeuhxyE5T-1" edge="1">
          <mxGeometry relative="1" as="geometry">
            <Array as="points">
              <mxPoint x="-260" y="480" />
              <mxPoint x="-335" y="480" />
            </Array>
          </mxGeometry>
        </mxCell>
        <mxCell id="yDsghZK9M2VO5eI2q2oZ-43" style="edgeStyle=orthogonalEdgeStyle;rounded=0;orthogonalLoop=1;jettySize=auto;html=1;exitX=1;exitY=0.5;exitDx=0;exitDy=0;endArrow=none;endFill=0;" parent="1" source="yDsghZK9M2VO5eI2q2oZ-35" target="xWwocuTpsRwCeuhxyE5T-3" edge="1">
          <mxGeometry relative="1" as="geometry" />
        </mxCell>
        <mxCell id="yDsghZK9M2VO5eI2q2oZ-35" value="us_im" style="shape=rhombus;perimeter=rhombusPerimeter;whiteSpace=wrap;html=1;align=center;rounded=1;" parent="1" vertex="1">
          <mxGeometry x="-205" y="477" width="120" height="60" as="geometry" />
        </mxCell>
        <mxCell id="yDsghZK9M2VO5eI2q2oZ-57" value="(1,N)" style="text;html=1;align=center;verticalAlign=middle;resizable=0;points=[];autosize=1;strokeColor=none;fillColor=none;fontSize=10;" parent="1" vertex="1">
          <mxGeometry x="-435" y="360" width="50" height="30" as="geometry" />
        </mxCell>
        <mxCell id="yDsghZK9M2VO5eI2q2oZ-64" value="(1,1)" style="text;html=1;align=center;verticalAlign=middle;resizable=0;points=[];autosize=1;strokeColor=none;fillColor=none;fontSize=10;" parent="1" vertex="1">
          <mxGeometry x="-340" y="423" width="40" height="30" as="geometry" />
        </mxCell>
        <mxCell id="yDsghZK9M2VO5eI2q2oZ-65" value="1:N" style="text;html=1;align=center;verticalAlign=middle;resizable=0;points=[];autosize=1;strokeColor=none;fillColor=none;" parent="1" vertex="1">
          <mxGeometry x="-167" y="454" width="40" height="30" as="geometry" />
        </mxCell>
        <mxCell id="yDsghZK9M2VO5eI2q2oZ-73" style="edgeStyle=orthogonalEdgeStyle;rounded=0;orthogonalLoop=1;jettySize=auto;html=1;exitX=1;exitY=0.5;exitDx=0;exitDy=0;entryX=0;entryY=0.5;entryDx=0;entryDy=0;endArrow=none;endFill=0;" parent="1" source="yDsghZK9M2VO5eI2q2oZ-74" target="yDsghZK9M2VO5eI2q2oZ-80" edge="1">
          <mxGeometry relative="1" as="geometry" />
        </mxCell>
        <mxCell id="aubPzzWPTt32pyCIXX7w-11" style="edgeStyle=orthogonalEdgeStyle;rounded=0;orthogonalLoop=1;jettySize=auto;html=1;exitX=0;exitY=0.75;exitDx=0;exitDy=0;entryX=1;entryY=0.5;entryDx=0;entryDy=0;endArrow=none;endFill=0;" edge="1" parent="1" source="yDsghZK9M2VO5eI2q2oZ-74" target="yDsghZK9M2VO5eI2q2oZ-78">
          <mxGeometry relative="1" as="geometry" />
        </mxCell>
        <mxCell id="aubPzzWPTt32pyCIXX7w-13" style="edgeStyle=orthogonalEdgeStyle;rounded=0;orthogonalLoop=1;jettySize=auto;html=1;exitX=0;exitY=0;exitDx=0;exitDy=0;entryX=1;entryY=0.5;entryDx=0;entryDy=0;endArrow=none;endFill=0;" edge="1" parent="1" source="yDsghZK9M2VO5eI2q2oZ-74" target="yDsghZK9M2VO5eI2q2oZ-79">
          <mxGeometry relative="1" as="geometry" />
        </mxCell>
        <mxCell id="aubPzzWPTt32pyCIXX7w-15" value="" style="edgeStyle=orthogonalEdgeStyle;rounded=0;orthogonalLoop=1;jettySize=auto;html=1;endArrow=none;endFill=0;" edge="1" parent="1" source="yDsghZK9M2VO5eI2q2oZ-74" target="aubPzzWPTt32pyCIXX7w-14">
          <mxGeometry relative="1" as="geometry" />
        </mxCell>
        <mxCell id="yDsghZK9M2VO5eI2q2oZ-74" value="dates" style="whiteSpace=wrap;html=1;rounded=1;arcSize=10;" parent="1" vertex="1">
          <mxGeometry x="-125" y="740" width="120" height="40" as="geometry" />
        </mxCell>
        <mxCell id="yDsghZK9M2VO5eI2q2oZ-75" style="edgeStyle=orthogonalEdgeStyle;rounded=0;orthogonalLoop=1;jettySize=auto;html=1;exitX=0.5;exitY=0;exitDx=0;exitDy=0;entryX=0.5;entryY=1;entryDx=0;entryDy=0;endArrow=none;endFill=0;" parent="1" source="yDsghZK9M2VO5eI2q2oZ-77" target="yDsghZK9M2VO5eI2q2oZ-74" edge="1">
          <mxGeometry relative="1" as="geometry" />
        </mxCell>
        <mxCell id="yDsghZK9M2VO5eI2q2oZ-76" value="" style="edgeStyle=orthogonalEdgeStyle;rounded=0;orthogonalLoop=1;jettySize=auto;html=1;endArrow=none;endFill=0;" parent="1" source="yDsghZK9M2VO5eI2q2oZ-77" target="yDsghZK9M2VO5eI2q2oZ-83" edge="1">
          <mxGeometry relative="1" as="geometry" />
        </mxCell>
        <mxCell id="yDsghZK9M2VO5eI2q2oZ-77" value="user_dates" style="shape=associativeEntity;whiteSpace=wrap;html=1;align=center;rounded=1;" parent="1" vertex="1">
          <mxGeometry x="-122" y="833" width="115" height="60" as="geometry" />
        </mxCell>
        <mxCell id="yDsghZK9M2VO5eI2q2oZ-78" value="day" style="ellipse;whiteSpace=wrap;html=1;align=center;" parent="1" vertex="1">
          <mxGeometry x="-250" y="740" width="100" height="40" as="geometry" />
        </mxCell>
        <mxCell id="yDsghZK9M2VO5eI2q2oZ-79" value="cod_date" style="ellipse;whiteSpace=wrap;html=1;align=center;fontStyle=4;" parent="1" vertex="1">
          <mxGeometry x="-250" y="690" width="100" height="40" as="geometry" />
        </mxCell>
        <mxCell id="yDsghZK9M2VO5eI2q2oZ-80" value="month" style="ellipse;whiteSpace=wrap;html=1;align=center;" parent="1" vertex="1">
          <mxGeometry x="35" y="740" width="100" height="40" as="geometry" />
        </mxCell>
        <mxCell id="aubPzzWPTt32pyCIXX7w-20" style="edgeStyle=orthogonalEdgeStyle;rounded=0;orthogonalLoop=1;jettySize=auto;html=1;exitX=0;exitY=0.5;exitDx=0;exitDy=0;entryX=1;entryY=0.25;entryDx=0;entryDy=0;endArrow=none;endFill=0;" edge="1" parent="1" source="yDsghZK9M2VO5eI2q2oZ-81" target="yDsghZK9M2VO5eI2q2oZ-74">
          <mxGeometry relative="1" as="geometry" />
        </mxCell>
        <mxCell id="yDsghZK9M2VO5eI2q2oZ-81" value="year" style="ellipse;whiteSpace=wrap;html=1;align=center;" parent="1" vertex="1">
          <mxGeometry x="46" y="690" width="100" height="40" as="geometry" />
        </mxCell>
        <mxCell id="yDsghZK9M2VO5eI2q2oZ-82" value="" style="edgeStyle=orthogonalEdgeStyle;rounded=0;orthogonalLoop=1;jettySize=auto;html=1;endArrow=none;endFill=0;" parent="1" source="yDsghZK9M2VO5eI2q2oZ-83" target="yDsghZK9M2VO5eI2q2oZ-85" edge="1">
          <mxGeometry relative="1" as="geometry" />
        </mxCell>
        <mxCell id="yDsghZK9M2VO5eI2q2oZ-83" value="us_da_de" style="rhombus;whiteSpace=wrap;html=1;rounded=1;" parent="1" vertex="1">
          <mxGeometry x="99" y="823" width="115" height="80" as="geometry" />
        </mxCell>
        <mxCell id="yDsghZK9M2VO5eI2q2oZ-84" style="edgeStyle=orthogonalEdgeStyle;rounded=0;orthogonalLoop=1;jettySize=auto;html=1;exitX=1;exitY=0.5;exitDx=0;exitDy=0;entryX=0;entryY=0.5;entryDx=0;entryDy=0;endArrow=none;endFill=0;" parent="1" source="yDsghZK9M2VO5eI2q2oZ-85" target="yDsghZK9M2VO5eI2q2oZ-93" edge="1">
          <mxGeometry relative="1" as="geometry" />
        </mxCell>
        <mxCell id="yDsghZK9M2VO5eI2q2oZ-85" value="date_description" style="whiteSpace=wrap;html=1;rounded=1;" parent="1" vertex="1">
          <mxGeometry x="280" y="841.5" width="120" height="43" as="geometry" />
        </mxCell>
        <mxCell id="yDsghZK9M2VO5eI2q2oZ-86" value="1:N" style="text;html=1;align=center;verticalAlign=middle;resizable=0;points=[];autosize=1;strokeColor=none;fillColor=none;" parent="1" vertex="1">
          <mxGeometry x="135" y="793" width="40" height="30" as="geometry" />
        </mxCell>
        <mxCell id="yDsghZK9M2VO5eI2q2oZ-87" value="(1,N)" style="text;html=1;align=center;verticalAlign=middle;resizable=0;points=[];autosize=1;strokeColor=none;fillColor=none;fontSize=10;" parent="1" vertex="1">
          <mxGeometry x="-10" y="833" width="50" height="30" as="geometry" />
        </mxCell>
        <mxCell id="yDsghZK9M2VO5eI2q2oZ-88" value="(1,1)" style="text;html=1;align=center;verticalAlign=middle;resizable=0;points=[];autosize=1;strokeColor=none;fillColor=none;fontSize=10;" parent="1" vertex="1">
          <mxGeometry x="235" y="833" width="40" height="30" as="geometry" />
        </mxCell>
        <mxCell id="yDsghZK9M2VO5eI2q2oZ-89" value="N:M" style="text;html=1;align=center;verticalAlign=middle;resizable=0;points=[];autosize=1;strokeColor=none;fillColor=none;" parent="1" vertex="1">
          <mxGeometry x="-89.5" y="903" width="50" height="30" as="geometry" />
        </mxCell>
        <mxCell id="yDsghZK9M2VO5eI2q2oZ-90" value="(1,N)" style="text;html=1;align=center;verticalAlign=middle;resizable=0;points=[];autosize=1;strokeColor=none;fillColor=none;fontSize=10;" parent="1" vertex="1">
          <mxGeometry x="-115" y="780" width="50" height="30" as="geometry" />
        </mxCell>
        <mxCell id="yDsghZK9M2VO5eI2q2oZ-91" style="edgeStyle=orthogonalEdgeStyle;rounded=0;orthogonalLoop=1;jettySize=auto;html=1;exitX=0.5;exitY=1;exitDx=0;exitDy=0;entryX=0.5;entryY=0;entryDx=0;entryDy=0;endArrow=none;endFill=0;" parent="1" source="yDsghZK9M2VO5eI2q2oZ-92" target="yDsghZK9M2VO5eI2q2oZ-85" edge="1">
          <mxGeometry relative="1" as="geometry" />
        </mxCell>
        <mxCell id="yDsghZK9M2VO5eI2q2oZ-92" value="cod_description" style="ellipse;whiteSpace=wrap;html=1;align=center;fontStyle=4;" parent="1" vertex="1">
          <mxGeometry x="290" y="760" width="100" height="40" as="geometry" />
        </mxCell>
        <mxCell id="yDsghZK9M2VO5eI2q2oZ-93" value="description" style="ellipse;whiteSpace=wrap;html=1;align=center;" parent="1" vertex="1">
          <mxGeometry x="435" y="843" width="100" height="40" as="geometry" />
        </mxCell>
        <mxCell id="yDsghZK9M2VO5eI2q2oZ-94" value="(1,N)" style="text;html=1;align=center;verticalAlign=middle;resizable=0;points=[];autosize=1;strokeColor=none;fillColor=none;fontSize=10;" parent="1" vertex="1">
          <mxGeometry x="71" y="461" width="50" height="30" as="geometry" />
        </mxCell>
        <mxCell id="yDsghZK9M2VO5eI2q2oZ-98" value="(1,N)" style="text;html=1;align=center;verticalAlign=middle;resizable=0;points=[];autosize=1;strokeColor=none;fillColor=none;fontSize=10;" parent="1" vertex="1">
          <mxGeometry x="-375" y="440" width="50" height="30" as="geometry" />
        </mxCell>
        <mxCell id="aubPzzWPTt32pyCIXX7w-16" style="edgeStyle=orthogonalEdgeStyle;rounded=0;orthogonalLoop=1;jettySize=auto;html=1;exitX=0.5;exitY=0;exitDx=0;exitDy=0;entryX=0;entryY=1;entryDx=0;entryDy=0;endArrow=none;endFill=0;" edge="1" parent="1" source="aubPzzWPTt32pyCIXX7w-14" target="xWwocuTpsRwCeuhxyE5T-3">
          <mxGeometry relative="1" as="geometry">
            <Array as="points">
              <mxPoint x="-65" y="530" />
              <mxPoint x="28" y="530" />
            </Array>
          </mxGeometry>
        </mxCell>
        <mxCell id="aubPzzWPTt32pyCIXX7w-14" value="im_da" style="rhombus;whiteSpace=wrap;html=1;rounded=1;arcSize=10;" vertex="1" parent="1">
          <mxGeometry x="-105" y="600" width="80" height="80" as="geometry" />
        </mxCell>
        <mxCell id="aubPzzWPTt32pyCIXX7w-17" value="1:N" style="text;html=1;align=center;verticalAlign=middle;resizable=0;points=[];autosize=1;strokeColor=none;fillColor=none;" vertex="1" parent="1">
          <mxGeometry x="-20" y="625" width="40" height="30" as="geometry" />
        </mxCell>
        <mxCell id="aubPzzWPTt32pyCIXX7w-18" value="0:N" style="text;html=1;align=center;verticalAlign=middle;resizable=0;points=[];autosize=1;strokeColor=none;fillColor=none;" vertex="1" parent="1">
          <mxGeometry x="-10" y="528" width="40" height="30" as="geometry" />
        </mxCell>
        <mxCell id="aubPzzWPTt32pyCIXX7w-19" value="1:1" style="text;html=1;align=center;verticalAlign=middle;resizable=0;points=[];autosize=1;strokeColor=none;fillColor=none;" vertex="1" parent="1">
          <mxGeometry x="-60" y="710" width="40" height="30" as="geometry" />
        </mxCell>
        <mxCell id="aubPzzWPTt32pyCIXX7w-21" value="dates" style="shape=table;startSize=25;container=1;collapsible=0;childLayout=tableLayout;fixedRows=1;rowLines=1;fontStyle=1;align=center;resizeLast=1;" vertex="1" parent="1">
          <mxGeometry x="-223" y="1206" width="107" height="113" as="geometry" />
        </mxCell>
        <mxCell id="aubPzzWPTt32pyCIXX7w-22" style="shape=tableRow;horizontal=0;startSize=0;swimlaneHead=0;swimlaneBody=0;fillColor=none;collapsible=0;dropTarget=0;points=[[0,0.5],[1,0.5]];portConstraint=eastwest;top=0;left=0;right=0;bottom=0;" vertex="1" parent="aubPzzWPTt32pyCIXX7w-21">
          <mxGeometry y="25" width="107" height="22" as="geometry" />
        </mxCell>
        <mxCell id="aubPzzWPTt32pyCIXX7w-23" value="INT4" style="shape=partialRectangle;connectable=0;fillColor=none;top=0;left=0;bottom=0;right=0;align=left;spacingLeft=2;overflow=hidden;fontSize=11;" vertex="1" parent="aubPzzWPTt32pyCIXX7w-22">
          <mxGeometry width="24" height="22" as="geometry">
            <mxRectangle width="24" height="22" as="alternateBounds" />
          </mxGeometry>
        </mxCell>
        <mxCell id="aubPzzWPTt32pyCIXX7w-24" value="cod_date" style="shape=partialRectangle;connectable=0;fillColor=none;top=0;left=0;bottom=0;right=0;align=left;spacingLeft=2;overflow=hidden;fontSize=11;" vertex="1" parent="aubPzzWPTt32pyCIXX7w-22">
          <mxGeometry x="24" width="83" height="22" as="geometry">
            <mxRectangle width="83" height="22" as="alternateBounds" />
          </mxGeometry>
        </mxCell>
        <mxCell id="aubPzzWPTt32pyCIXX7w-25" style="shape=tableRow;horizontal=0;startSize=0;swimlaneHead=0;swimlaneBody=0;fillColor=none;collapsible=0;dropTarget=0;points=[[0,0.5],[1,0.5]];portConstraint=eastwest;top=0;left=0;right=0;bottom=0;" vertex="1" parent="aubPzzWPTt32pyCIXX7w-21">
          <mxGeometry y="47" width="107" height="22" as="geometry" />
        </mxCell>
        <mxCell id="aubPzzWPTt32pyCIXX7w-26" value="INT4" style="shape=partialRectangle;connectable=0;fillColor=none;top=0;left=0;bottom=0;right=0;align=left;spacingLeft=2;overflow=hidden;fontSize=11;" vertex="1" parent="aubPzzWPTt32pyCIXX7w-25">
          <mxGeometry width="24" height="22" as="geometry">
            <mxRectangle width="24" height="22" as="alternateBounds" />
          </mxGeometry>
        </mxCell>
        <mxCell id="aubPzzWPTt32pyCIXX7w-27" value="year" style="shape=partialRectangle;connectable=0;fillColor=none;top=0;left=0;bottom=0;right=0;align=left;spacingLeft=2;overflow=hidden;fontSize=11;" vertex="1" parent="aubPzzWPTt32pyCIXX7w-25">
          <mxGeometry x="24" width="83" height="22" as="geometry">
            <mxRectangle width="83" height="22" as="alternateBounds" />
          </mxGeometry>
        </mxCell>
        <mxCell id="aubPzzWPTt32pyCIXX7w-28" style="shape=tableRow;horizontal=0;startSize=0;swimlaneHead=0;swimlaneBody=0;fillColor=none;collapsible=0;dropTarget=0;points=[[0,0.5],[1,0.5]];portConstraint=eastwest;top=0;left=0;right=0;bottom=0;" vertex="1" parent="aubPzzWPTt32pyCIXX7w-21">
          <mxGeometry y="69" width="107" height="22" as="geometry" />
        </mxCell>
        <mxCell id="aubPzzWPTt32pyCIXX7w-29" value="INT4" style="shape=partialRectangle;connectable=0;fillColor=none;top=0;left=0;bottom=0;right=0;align=left;spacingLeft=2;overflow=hidden;fontSize=11;" vertex="1" parent="aubPzzWPTt32pyCIXX7w-28">
          <mxGeometry width="24" height="22" as="geometry">
            <mxRectangle width="24" height="22" as="alternateBounds" />
          </mxGeometry>
        </mxCell>
        <mxCell id="aubPzzWPTt32pyCIXX7w-30" value="month" style="shape=partialRectangle;connectable=0;fillColor=none;top=0;left=0;bottom=0;right=0;align=left;spacingLeft=2;overflow=hidden;fontSize=11;" vertex="1" parent="aubPzzWPTt32pyCIXX7w-28">
          <mxGeometry x="24" width="83" height="22" as="geometry">
            <mxRectangle width="83" height="22" as="alternateBounds" />
          </mxGeometry>
        </mxCell>
        <mxCell id="aubPzzWPTt32pyCIXX7w-31" style="shape=tableRow;horizontal=0;startSize=0;swimlaneHead=0;swimlaneBody=0;fillColor=none;collapsible=0;dropTarget=0;points=[[0,0.5],[1,0.5]];portConstraint=eastwest;top=0;left=0;right=0;bottom=0;" vertex="1" parent="aubPzzWPTt32pyCIXX7w-21">
          <mxGeometry y="91" width="107" height="22" as="geometry" />
        </mxCell>
        <mxCell id="aubPzzWPTt32pyCIXX7w-32" value="DATE" style="shape=partialRectangle;connectable=0;fillColor=none;top=0;left=0;bottom=0;right=0;align=left;spacingLeft=2;overflow=hidden;fontSize=11;" vertex="1" parent="aubPzzWPTt32pyCIXX7w-31">
          <mxGeometry width="24" height="22" as="geometry">
            <mxRectangle width="24" height="22" as="alternateBounds" />
          </mxGeometry>
        </mxCell>
        <mxCell id="aubPzzWPTt32pyCIXX7w-33" value="day" style="shape=partialRectangle;connectable=0;fillColor=none;top=0;left=0;bottom=0;right=0;align=left;spacingLeft=2;overflow=hidden;fontSize=11;" vertex="1" parent="aubPzzWPTt32pyCIXX7w-31">
          <mxGeometry x="24" width="83" height="22" as="geometry">
            <mxRectangle width="83" height="22" as="alternateBounds" />
          </mxGeometry>
        </mxCell>
        <mxCell id="aubPzzWPTt32pyCIXX7w-34" value="images" style="shape=table;startSize=25;container=1;collapsible=0;childLayout=tableLayout;fixedRows=1;rowLines=1;fontStyle=1;align=center;resizeLast=1;" vertex="1" parent="1">
          <mxGeometry x="-300" y="970" width="160" height="113" as="geometry" />
        </mxCell>
        <mxCell id="aubPzzWPTt32pyCIXX7w-35" style="shape=tableRow;horizontal=0;startSize=0;swimlaneHead=0;swimlaneBody=0;fillColor=none;collapsible=0;dropTarget=0;points=[[0,0.5],[1,0.5]];portConstraint=eastwest;top=0;left=0;right=0;bottom=0;" vertex="1" parent="aubPzzWPTt32pyCIXX7w-34">
          <mxGeometry y="25" width="160" height="22" as="geometry" />
        </mxCell>
        <mxCell id="aubPzzWPTt32pyCIXX7w-36" value="SERIAL" style="shape=partialRectangle;connectable=0;fillColor=none;top=0;left=0;bottom=0;right=0;align=left;spacingLeft=2;overflow=hidden;fontSize=11;" vertex="1" parent="aubPzzWPTt32pyCIXX7w-35">
          <mxGeometry width="72" height="22" as="geometry">
            <mxRectangle width="72" height="22" as="alternateBounds" />
          </mxGeometry>
        </mxCell>
        <mxCell id="aubPzzWPTt32pyCIXX7w-37" value="cod_image" style="shape=partialRectangle;connectable=0;fillColor=none;top=0;left=0;bottom=0;right=0;align=left;spacingLeft=2;overflow=hidden;fontSize=11;" vertex="1" parent="aubPzzWPTt32pyCIXX7w-35">
          <mxGeometry x="72" width="88" height="22" as="geometry">
            <mxRectangle width="88" height="22" as="alternateBounds" />
          </mxGeometry>
        </mxCell>
        <mxCell id="aubPzzWPTt32pyCIXX7w-38" style="shape=tableRow;horizontal=0;startSize=0;swimlaneHead=0;swimlaneBody=0;fillColor=none;collapsible=0;dropTarget=0;points=[[0,0.5],[1,0.5]];portConstraint=eastwest;top=0;left=0;right=0;bottom=0;" vertex="1" parent="aubPzzWPTt32pyCIXX7w-34">
          <mxGeometry y="47" width="160" height="22" as="geometry" />
        </mxCell>
        <mxCell id="aubPzzWPTt32pyCIXX7w-39" value="INT4" style="shape=partialRectangle;connectable=0;fillColor=none;top=0;left=0;bottom=0;right=0;align=left;spacingLeft=2;overflow=hidden;fontSize=11;" vertex="1" parent="aubPzzWPTt32pyCIXX7w-38">
          <mxGeometry width="72" height="22" as="geometry">
            <mxRectangle width="72" height="22" as="alternateBounds" />
          </mxGeometry>
        </mxCell>
        <mxCell id="aubPzzWPTt32pyCIXX7w-40" value="cod_ubi" style="shape=partialRectangle;connectable=0;fillColor=none;top=0;left=0;bottom=0;right=0;align=left;spacingLeft=2;overflow=hidden;fontSize=11;" vertex="1" parent="aubPzzWPTt32pyCIXX7w-38">
          <mxGeometry x="72" width="88" height="22" as="geometry">
            <mxRectangle width="88" height="22" as="alternateBounds" />
          </mxGeometry>
        </mxCell>
        <mxCell id="aubPzzWPTt32pyCIXX7w-41" style="shape=tableRow;horizontal=0;startSize=0;swimlaneHead=0;swimlaneBody=0;fillColor=none;collapsible=0;dropTarget=0;points=[[0,0.5],[1,0.5]];portConstraint=eastwest;top=0;left=0;right=0;bottom=0;" vertex="1" parent="aubPzzWPTt32pyCIXX7w-34">
          <mxGeometry y="69" width="160" height="22" as="geometry" />
        </mxCell>
        <mxCell id="aubPzzWPTt32pyCIXX7w-42" value="INT4" style="shape=partialRectangle;connectable=0;fillColor=none;top=0;left=0;bottom=0;right=0;align=left;spacingLeft=2;overflow=hidden;fontSize=11;" vertex="1" parent="aubPzzWPTt32pyCIXX7w-41">
          <mxGeometry width="72" height="22" as="geometry">
            <mxRectangle width="72" height="22" as="alternateBounds" />
          </mxGeometry>
        </mxCell>
        <mxCell id="aubPzzWPTt32pyCIXX7w-43" value="uploadedat" style="shape=partialRectangle;connectable=0;fillColor=none;top=0;left=0;bottom=0;right=0;align=left;spacingLeft=2;overflow=hidden;fontSize=11;" vertex="1" parent="aubPzzWPTt32pyCIXX7w-41">
          <mxGeometry x="72" width="88" height="22" as="geometry">
            <mxRectangle width="88" height="22" as="alternateBounds" />
          </mxGeometry>
        </mxCell>
        <mxCell id="aubPzzWPTt32pyCIXX7w-44" style="shape=tableRow;horizontal=0;startSize=0;swimlaneHead=0;swimlaneBody=0;fillColor=none;collapsible=0;dropTarget=0;points=[[0,0.5],[1,0.5]];portConstraint=eastwest;top=0;left=0;right=0;bottom=0;" vertex="1" parent="aubPzzWPTt32pyCIXX7w-34">
          <mxGeometry y="91" width="160" height="22" as="geometry" />
        </mxCell>
        <mxCell id="aubPzzWPTt32pyCIXX7w-45" value="VARCHAR(300)" style="shape=partialRectangle;connectable=0;fillColor=none;top=0;left=0;bottom=0;right=0;align=left;spacingLeft=2;overflow=hidden;fontSize=11;" vertex="1" parent="aubPzzWPTt32pyCIXX7w-44">
          <mxGeometry width="72" height="22" as="geometry">
            <mxRectangle width="72" height="22" as="alternateBounds" />
          </mxGeometry>
        </mxCell>
        <mxCell id="aubPzzWPTt32pyCIXX7w-46" value="image" style="shape=partialRectangle;connectable=0;fillColor=none;top=0;left=0;bottom=0;right=0;align=left;spacingLeft=2;overflow=hidden;fontSize=11;" vertex="1" parent="aubPzzWPTt32pyCIXX7w-44">
          <mxGeometry x="72" width="88" height="22" as="geometry">
            <mxRectangle width="88" height="22" as="alternateBounds" />
          </mxGeometry>
        </mxCell>
        <mxCell id="aubPzzWPTt32pyCIXX7w-47" value="users_state" style="shape=table;startSize=25;container=1;collapsible=0;childLayout=tableLayout;fixedRows=1;rowLines=1;fontStyle=1;align=center;resizeLast=1;" vertex="1" parent="1">
          <mxGeometry x="386" y="1440" width="142" height="69" as="geometry" />
        </mxCell>
        <mxCell id="aubPzzWPTt32pyCIXX7w-48" style="shape=tableRow;horizontal=0;startSize=0;swimlaneHead=0;swimlaneBody=0;fillColor=none;collapsible=0;dropTarget=0;points=[[0,0.5],[1,0.5]];portConstraint=eastwest;top=0;left=0;right=0;bottom=0;" vertex="1" parent="aubPzzWPTt32pyCIXX7w-47">
          <mxGeometry y="25" width="142" height="22" as="geometry" />
        </mxCell>
        <mxCell id="aubPzzWPTt32pyCIXX7w-49" value="INT4" style="shape=partialRectangle;connectable=0;fillColor=none;top=0;left=0;bottom=0;right=0;align=left;spacingLeft=2;overflow=hidden;fontSize=11;" vertex="1" parent="aubPzzWPTt32pyCIXX7w-48">
          <mxGeometry width="60" height="22" as="geometry">
            <mxRectangle width="60" height="22" as="alternateBounds" />
          </mxGeometry>
        </mxCell>
        <mxCell id="aubPzzWPTt32pyCIXX7w-50" value="cod_state" style="shape=partialRectangle;connectable=0;fillColor=none;top=0;left=0;bottom=0;right=0;align=left;spacingLeft=2;overflow=hidden;fontSize=11;" vertex="1" parent="aubPzzWPTt32pyCIXX7w-48">
          <mxGeometry x="60" width="82" height="22" as="geometry">
            <mxRectangle width="82" height="22" as="alternateBounds" />
          </mxGeometry>
        </mxCell>
        <mxCell id="aubPzzWPTt32pyCIXX7w-51" style="shape=tableRow;horizontal=0;startSize=0;swimlaneHead=0;swimlaneBody=0;fillColor=none;collapsible=0;dropTarget=0;points=[[0,0.5],[1,0.5]];portConstraint=eastwest;top=0;left=0;right=0;bottom=0;" vertex="1" parent="aubPzzWPTt32pyCIXX7w-47">
          <mxGeometry y="47" width="142" height="22" as="geometry" />
        </mxCell>
        <mxCell id="aubPzzWPTt32pyCIXX7w-52" value="VARCHAR(8)" style="shape=partialRectangle;connectable=0;fillColor=none;top=0;left=0;bottom=0;right=0;align=left;spacingLeft=2;overflow=hidden;fontSize=11;" vertex="1" parent="aubPzzWPTt32pyCIXX7w-51">
          <mxGeometry width="60" height="22" as="geometry">
            <mxRectangle width="60" height="22" as="alternateBounds" />
          </mxGeometry>
        </mxCell>
        <mxCell id="aubPzzWPTt32pyCIXX7w-53" value="state" style="shape=partialRectangle;connectable=0;fillColor=none;top=0;left=0;bottom=0;right=0;align=left;spacingLeft=2;overflow=hidden;fontSize=11;" vertex="1" parent="aubPzzWPTt32pyCIXX7w-51">
          <mxGeometry x="60" width="82" height="22" as="geometry">
            <mxRectangle width="82" height="22" as="alternateBounds" />
          </mxGeometry>
        </mxCell>
        <mxCell id="aubPzzWPTt32pyCIXX7w-54" value="date_descriptions" style="shape=table;startSize=25;container=1;collapsible=0;childLayout=tableLayout;fixedRows=1;rowLines=1;fontStyle=1;align=center;resizeLast=1;" vertex="1" parent="1">
          <mxGeometry x="34" y="1227" width="170" height="69" as="geometry" />
        </mxCell>
        <mxCell id="aubPzzWPTt32pyCIXX7w-55" style="shape=tableRow;horizontal=0;startSize=0;swimlaneHead=0;swimlaneBody=0;fillColor=none;collapsible=0;dropTarget=0;points=[[0,0.5],[1,0.5]];portConstraint=eastwest;top=0;left=0;right=0;bottom=0;" vertex="1" parent="aubPzzWPTt32pyCIXX7w-54">
          <mxGeometry y="25" width="170" height="22" as="geometry" />
        </mxCell>
        <mxCell id="aubPzzWPTt32pyCIXX7w-56" value="INT4" style="shape=partialRectangle;connectable=0;fillColor=none;top=0;left=0;bottom=0;right=0;align=left;spacingLeft=2;overflow=hidden;fontSize=11;" vertex="1" parent="aubPzzWPTt32pyCIXX7w-55">
          <mxGeometry width="60" height="22" as="geometry">
            <mxRectangle width="60" height="22" as="alternateBounds" />
          </mxGeometry>
        </mxCell>
        <mxCell id="aubPzzWPTt32pyCIXX7w-57" value="cod_description" style="shape=partialRectangle;connectable=0;fillColor=none;top=0;left=0;bottom=0;right=0;align=left;spacingLeft=2;overflow=hidden;fontSize=11;" vertex="1" parent="aubPzzWPTt32pyCIXX7w-55">
          <mxGeometry x="60" width="110" height="22" as="geometry">
            <mxRectangle width="110" height="22" as="alternateBounds" />
          </mxGeometry>
        </mxCell>
        <mxCell id="aubPzzWPTt32pyCIXX7w-58" style="shape=tableRow;horizontal=0;startSize=0;swimlaneHead=0;swimlaneBody=0;fillColor=none;collapsible=0;dropTarget=0;points=[[0,0.5],[1,0.5]];portConstraint=eastwest;top=0;left=0;right=0;bottom=0;" vertex="1" parent="aubPzzWPTt32pyCIXX7w-54">
          <mxGeometry y="47" width="170" height="22" as="geometry" />
        </mxCell>
        <mxCell id="aubPzzWPTt32pyCIXX7w-59" value="VARCHAR(8)" style="shape=partialRectangle;connectable=0;fillColor=none;top=0;left=0;bottom=0;right=0;align=left;spacingLeft=2;overflow=hidden;fontSize=11;" vertex="1" parent="aubPzzWPTt32pyCIXX7w-58">
          <mxGeometry width="60" height="22" as="geometry">
            <mxRectangle width="60" height="22" as="alternateBounds" />
          </mxGeometry>
        </mxCell>
        <mxCell id="aubPzzWPTt32pyCIXX7w-60" value="description" style="shape=partialRectangle;connectable=0;fillColor=none;top=0;left=0;bottom=0;right=0;align=left;spacingLeft=2;overflow=hidden;fontSize=11;" vertex="1" parent="aubPzzWPTt32pyCIXX7w-58">
          <mxGeometry x="60" width="110" height="22" as="geometry">
            <mxRectangle width="110" height="22" as="alternateBounds" />
          </mxGeometry>
        </mxCell>
        <mxCell id="aubPzzWPTt32pyCIXX7w-61" value="ubication" style="shape=table;startSize=25;container=1;collapsible=0;childLayout=tableLayout;fixedRows=1;rowLines=1;fontStyle=1;align=center;resizeLast=1;" vertex="1" parent="1">
          <mxGeometry x="141" y="1440" width="144" height="69" as="geometry" />
        </mxCell>
        <mxCell id="aubPzzWPTt32pyCIXX7w-62" style="shape=tableRow;horizontal=0;startSize=0;swimlaneHead=0;swimlaneBody=0;fillColor=none;collapsible=0;dropTarget=0;points=[[0,0.5],[1,0.5]];portConstraint=eastwest;top=0;left=0;right=0;bottom=0;" vertex="1" parent="aubPzzWPTt32pyCIXX7w-61">
          <mxGeometry y="25" width="144" height="22" as="geometry" />
        </mxCell>
        <mxCell id="aubPzzWPTt32pyCIXX7w-63" value="INT4" style="shape=partialRectangle;connectable=0;fillColor=none;top=0;left=0;bottom=0;right=0;align=left;spacingLeft=2;overflow=hidden;fontSize=11;" vertex="1" parent="aubPzzWPTt32pyCIXX7w-62">
          <mxGeometry width="72" height="22" as="geometry">
            <mxRectangle width="72" height="22" as="alternateBounds" />
          </mxGeometry>
        </mxCell>
        <mxCell id="aubPzzWPTt32pyCIXX7w-64" value="cod_ubi" style="shape=partialRectangle;connectable=0;fillColor=none;top=0;left=0;bottom=0;right=0;align=left;spacingLeft=2;overflow=hidden;fontSize=11;" vertex="1" parent="aubPzzWPTt32pyCIXX7w-62">
          <mxGeometry x="72" width="72" height="22" as="geometry">
            <mxRectangle width="72" height="22" as="alternateBounds" />
          </mxGeometry>
        </mxCell>
        <mxCell id="aubPzzWPTt32pyCIXX7w-65" style="shape=tableRow;horizontal=0;startSize=0;swimlaneHead=0;swimlaneBody=0;fillColor=none;collapsible=0;dropTarget=0;points=[[0,0.5],[1,0.5]];portConstraint=eastwest;top=0;left=0;right=0;bottom=0;" vertex="1" parent="aubPzzWPTt32pyCIXX7w-61">
          <mxGeometry y="47" width="144" height="22" as="geometry" />
        </mxCell>
        <mxCell id="aubPzzWPTt32pyCIXX7w-66" value="VARCHAR(100)" style="shape=partialRectangle;connectable=0;fillColor=none;top=0;left=0;bottom=0;right=0;align=left;spacingLeft=2;overflow=hidden;fontSize=11;" vertex="1" parent="aubPzzWPTt32pyCIXX7w-65">
          <mxGeometry width="72" height="22" as="geometry">
            <mxRectangle width="72" height="22" as="alternateBounds" />
          </mxGeometry>
        </mxCell>
        <mxCell id="aubPzzWPTt32pyCIXX7w-67" value="country" style="shape=partialRectangle;connectable=0;fillColor=none;top=0;left=0;bottom=0;right=0;align=left;spacingLeft=2;overflow=hidden;fontSize=11;" vertex="1" parent="aubPzzWPTt32pyCIXX7w-65">
          <mxGeometry x="72" width="72" height="22" as="geometry">
            <mxRectangle width="72" height="22" as="alternateBounds" />
          </mxGeometry>
        </mxCell>
        <mxCell id="aubPzzWPTt32pyCIXX7w-68" value="users" style="shape=table;startSize=25;container=1;collapsible=0;childLayout=tableLayout;fixedRows=1;rowLines=1;fontStyle=1;align=center;resizeLast=1;" vertex="1" parent="1">
          <mxGeometry x="304" y="1182" width="153" height="158" as="geometry" />
        </mxCell>
        <mxCell id="aubPzzWPTt32pyCIXX7w-69" style="shape=tableRow;horizontal=0;startSize=0;swimlaneHead=0;swimlaneBody=0;fillColor=none;collapsible=0;dropTarget=0;points=[[0,0.5],[1,0.5]];portConstraint=eastwest;top=0;left=0;right=0;bottom=0;" vertex="1" parent="aubPzzWPTt32pyCIXX7w-68">
          <mxGeometry y="25" width="153" height="22" as="geometry" />
        </mxCell>
        <mxCell id="aubPzzWPTt32pyCIXX7w-70" value="SERIAL" style="shape=partialRectangle;connectable=0;fillColor=none;top=0;left=0;bottom=0;right=0;align=left;spacingLeft=2;overflow=hidden;fontSize=11;" vertex="1" parent="aubPzzWPTt32pyCIXX7w-69">
          <mxGeometry width="72" height="22" as="geometry">
            <mxRectangle width="72" height="22" as="alternateBounds" />
          </mxGeometry>
        </mxCell>
        <mxCell id="aubPzzWPTt32pyCIXX7w-71" value="cod_user" style="shape=partialRectangle;connectable=0;fillColor=none;top=0;left=0;bottom=0;right=0;align=left;spacingLeft=2;overflow=hidden;fontSize=11;" vertex="1" parent="aubPzzWPTt32pyCIXX7w-69">
          <mxGeometry x="72" width="81" height="22" as="geometry">
            <mxRectangle width="81" height="22" as="alternateBounds" />
          </mxGeometry>
        </mxCell>
        <mxCell id="aubPzzWPTt32pyCIXX7w-72" style="shape=tableRow;horizontal=0;startSize=0;swimlaneHead=0;swimlaneBody=0;fillColor=none;collapsible=0;dropTarget=0;points=[[0,0.5],[1,0.5]];portConstraint=eastwest;top=0;left=0;right=0;bottom=0;" vertex="1" parent="aubPzzWPTt32pyCIXX7w-68">
          <mxGeometry y="47" width="153" height="22" as="geometry" />
        </mxCell>
        <mxCell id="aubPzzWPTt32pyCIXX7w-73" value="INT4" style="shape=partialRectangle;connectable=0;fillColor=none;top=0;left=0;bottom=0;right=0;align=left;spacingLeft=2;overflow=hidden;fontSize=11;" vertex="1" parent="aubPzzWPTt32pyCIXX7w-72">
          <mxGeometry width="72" height="22" as="geometry">
            <mxRectangle width="72" height="22" as="alternateBounds" />
          </mxGeometry>
        </mxCell>
        <mxCell id="aubPzzWPTt32pyCIXX7w-74" value="cod_ubi" style="shape=partialRectangle;connectable=0;fillColor=none;top=0;left=0;bottom=0;right=0;align=left;spacingLeft=2;overflow=hidden;fontSize=11;" vertex="1" parent="aubPzzWPTt32pyCIXX7w-72">
          <mxGeometry x="72" width="81" height="22" as="geometry">
            <mxRectangle width="81" height="22" as="alternateBounds" />
          </mxGeometry>
        </mxCell>
        <mxCell id="aubPzzWPTt32pyCIXX7w-75" style="shape=tableRow;horizontal=0;startSize=0;swimlaneHead=0;swimlaneBody=0;fillColor=none;collapsible=0;dropTarget=0;points=[[0,0.5],[1,0.5]];portConstraint=eastwest;top=0;left=0;right=0;bottom=0;" vertex="1" parent="aubPzzWPTt32pyCIXX7w-68">
          <mxGeometry y="69" width="153" height="22" as="geometry" />
        </mxCell>
        <mxCell id="aubPzzWPTt32pyCIXX7w-76" value="INT4" style="shape=partialRectangle;connectable=0;fillColor=none;top=0;left=0;bottom=0;right=0;align=left;spacingLeft=2;overflow=hidden;fontSize=11;" vertex="1" parent="aubPzzWPTt32pyCIXX7w-75">
          <mxGeometry width="72" height="22" as="geometry">
            <mxRectangle width="72" height="22" as="alternateBounds" />
          </mxGeometry>
        </mxCell>
        <mxCell id="aubPzzWPTt32pyCIXX7w-77" value="cod_state" style="shape=partialRectangle;connectable=0;fillColor=none;top=0;left=0;bottom=0;right=0;align=left;spacingLeft=2;overflow=hidden;fontSize=11;" vertex="1" parent="aubPzzWPTt32pyCIXX7w-75">
          <mxGeometry x="72" width="81" height="22" as="geometry">
            <mxRectangle width="81" height="22" as="alternateBounds" />
          </mxGeometry>
        </mxCell>
        <mxCell id="aubPzzWPTt32pyCIXX7w-78" style="shape=tableRow;horizontal=0;startSize=0;swimlaneHead=0;swimlaneBody=0;fillColor=none;collapsible=0;dropTarget=0;points=[[0,0.5],[1,0.5]];portConstraint=eastwest;top=0;left=0;right=0;bottom=0;" vertex="1" parent="aubPzzWPTt32pyCIXX7w-68">
          <mxGeometry y="91" width="153" height="22" as="geometry" />
        </mxCell>
        <mxCell id="aubPzzWPTt32pyCIXX7w-79" value="VARCHAR(15)" style="shape=partialRectangle;connectable=0;fillColor=none;top=0;left=0;bottom=0;right=0;align=left;spacingLeft=2;overflow=hidden;fontSize=11;" vertex="1" parent="aubPzzWPTt32pyCIXX7w-78">
          <mxGeometry width="72" height="22" as="geometry">
            <mxRectangle width="72" height="22" as="alternateBounds" />
          </mxGeometry>
        </mxCell>
        <mxCell id="aubPzzWPTt32pyCIXX7w-80" value="username" style="shape=partialRectangle;connectable=0;fillColor=none;top=0;left=0;bottom=0;right=0;align=left;spacingLeft=2;overflow=hidden;fontSize=11;" vertex="1" parent="aubPzzWPTt32pyCIXX7w-78">
          <mxGeometry x="72" width="81" height="22" as="geometry">
            <mxRectangle width="81" height="22" as="alternateBounds" />
          </mxGeometry>
        </mxCell>
        <mxCell id="aubPzzWPTt32pyCIXX7w-81" style="shape=tableRow;horizontal=0;startSize=0;swimlaneHead=0;swimlaneBody=0;fillColor=none;collapsible=0;dropTarget=0;points=[[0,0.5],[1,0.5]];portConstraint=eastwest;top=0;left=0;right=0;bottom=0;" vertex="1" parent="aubPzzWPTt32pyCIXX7w-68">
          <mxGeometry y="113" width="153" height="22" as="geometry" />
        </mxCell>
        <mxCell id="aubPzzWPTt32pyCIXX7w-82" value="VARCHAR(50)" style="shape=partialRectangle;connectable=0;fillColor=none;top=0;left=0;bottom=0;right=0;align=left;spacingLeft=2;overflow=hidden;fontSize=11;" vertex="1" parent="aubPzzWPTt32pyCIXX7w-81">
          <mxGeometry width="72" height="22" as="geometry">
            <mxRectangle width="72" height="22" as="alternateBounds" />
          </mxGeometry>
        </mxCell>
        <mxCell id="aubPzzWPTt32pyCIXX7w-83" value="email" style="shape=partialRectangle;connectable=0;fillColor=none;top=0;left=0;bottom=0;right=0;align=left;spacingLeft=2;overflow=hidden;fontSize=11;" vertex="1" parent="aubPzzWPTt32pyCIXX7w-81">
          <mxGeometry x="72" width="81" height="22" as="geometry">
            <mxRectangle width="81" height="22" as="alternateBounds" />
          </mxGeometry>
        </mxCell>
        <mxCell id="aubPzzWPTt32pyCIXX7w-84" style="shape=tableRow;horizontal=0;startSize=0;swimlaneHead=0;swimlaneBody=0;fillColor=none;collapsible=0;dropTarget=0;points=[[0,0.5],[1,0.5]];portConstraint=eastwest;top=0;left=0;right=0;bottom=0;" vertex="1" parent="aubPzzWPTt32pyCIXX7w-68">
          <mxGeometry y="135" width="153" height="22" as="geometry" />
        </mxCell>
        <mxCell id="aubPzzWPTt32pyCIXX7w-85" value="VARCHAR(300)" style="shape=partialRectangle;connectable=0;fillColor=none;top=0;left=0;bottom=0;right=0;align=left;spacingLeft=2;overflow=hidden;fontSize=11;" vertex="1" parent="aubPzzWPTt32pyCIXX7w-84">
          <mxGeometry width="72" height="22" as="geometry">
            <mxRectangle width="72" height="22" as="alternateBounds" />
          </mxGeometry>
        </mxCell>
        <mxCell id="aubPzzWPTt32pyCIXX7w-86" value="password" style="shape=partialRectangle;connectable=0;fillColor=none;top=0;left=0;bottom=0;right=0;align=left;spacingLeft=2;overflow=hidden;fontSize=11;" vertex="1" parent="aubPzzWPTt32pyCIXX7w-84">
          <mxGeometry x="72" width="81" height="22" as="geometry">
            <mxRectangle width="81" height="22" as="alternateBounds" />
          </mxGeometry>
        </mxCell>
        <mxCell id="aubPzzWPTt32pyCIXX7w-87" value="users_dates" style="shape=table;startSize=25;container=1;collapsible=0;childLayout=tableLayout;fixedRows=1;rowLines=1;fontStyle=1;align=center;resizeLast=1;" vertex="1" parent="1">
          <mxGeometry x="6" y="981" width="135" height="91" as="geometry" />
        </mxCell>
        <mxCell id="aubPzzWPTt32pyCIXX7w-88" style="shape=tableRow;horizontal=0;startSize=0;swimlaneHead=0;swimlaneBody=0;fillColor=none;collapsible=0;dropTarget=0;points=[[0,0.5],[1,0.5]];portConstraint=eastwest;top=0;left=0;right=0;bottom=0;" vertex="1" parent="aubPzzWPTt32pyCIXX7w-87">
          <mxGeometry y="25" width="135" height="22" as="geometry" />
        </mxCell>
        <mxCell id="aubPzzWPTt32pyCIXX7w-89" value="INT4" style="shape=partialRectangle;connectable=0;fillColor=none;top=0;left=0;bottom=0;right=0;align=left;spacingLeft=2;overflow=hidden;fontSize=11;" vertex="1" parent="aubPzzWPTt32pyCIXX7w-88">
          <mxGeometry width="24" height="22" as="geometry">
            <mxRectangle width="24" height="22" as="alternateBounds" />
          </mxGeometry>
        </mxCell>
        <mxCell id="aubPzzWPTt32pyCIXX7w-90" value="cod_date" style="shape=partialRectangle;connectable=0;fillColor=none;top=0;left=0;bottom=0;right=0;align=left;spacingLeft=2;overflow=hidden;fontSize=11;" vertex="1" parent="aubPzzWPTt32pyCIXX7w-88">
          <mxGeometry x="24" width="111" height="22" as="geometry">
            <mxRectangle width="111" height="22" as="alternateBounds" />
          </mxGeometry>
        </mxCell>
        <mxCell id="aubPzzWPTt32pyCIXX7w-91" style="shape=tableRow;horizontal=0;startSize=0;swimlaneHead=0;swimlaneBody=0;fillColor=none;collapsible=0;dropTarget=0;points=[[0,0.5],[1,0.5]];portConstraint=eastwest;top=0;left=0;right=0;bottom=0;" vertex="1" parent="aubPzzWPTt32pyCIXX7w-87">
          <mxGeometry y="47" width="135" height="22" as="geometry" />
        </mxCell>
        <mxCell id="aubPzzWPTt32pyCIXX7w-92" value="INT4" style="shape=partialRectangle;connectable=0;fillColor=none;top=0;left=0;bottom=0;right=0;align=left;spacingLeft=2;overflow=hidden;fontSize=11;" vertex="1" parent="aubPzzWPTt32pyCIXX7w-91">
          <mxGeometry width="24" height="22" as="geometry">
            <mxRectangle width="24" height="22" as="alternateBounds" />
          </mxGeometry>
        </mxCell>
        <mxCell id="aubPzzWPTt32pyCIXX7w-93" value="cod_user" style="shape=partialRectangle;connectable=0;fillColor=none;top=0;left=0;bottom=0;right=0;align=left;spacingLeft=2;overflow=hidden;fontSize=11;" vertex="1" parent="aubPzzWPTt32pyCIXX7w-91">
          <mxGeometry x="24" width="111" height="22" as="geometry">
            <mxRectangle width="111" height="22" as="alternateBounds" />
          </mxGeometry>
        </mxCell>
        <mxCell id="aubPzzWPTt32pyCIXX7w-94" style="shape=tableRow;horizontal=0;startSize=0;swimlaneHead=0;swimlaneBody=0;fillColor=none;collapsible=0;dropTarget=0;points=[[0,0.5],[1,0.5]];portConstraint=eastwest;top=0;left=0;right=0;bottom=0;" vertex="1" parent="aubPzzWPTt32pyCIXX7w-87">
          <mxGeometry y="69" width="135" height="22" as="geometry" />
        </mxCell>
        <mxCell id="aubPzzWPTt32pyCIXX7w-95" value="INT4" style="shape=partialRectangle;connectable=0;fillColor=none;top=0;left=0;bottom=0;right=0;align=left;spacingLeft=2;overflow=hidden;fontSize=11;" vertex="1" parent="aubPzzWPTt32pyCIXX7w-94">
          <mxGeometry width="24" height="22" as="geometry">
            <mxRectangle width="24" height="22" as="alternateBounds" />
          </mxGeometry>
        </mxCell>
        <mxCell id="aubPzzWPTt32pyCIXX7w-96" value="cod_description" style="shape=partialRectangle;connectable=0;fillColor=none;top=0;left=0;bottom=0;right=0;align=left;spacingLeft=2;overflow=hidden;fontSize=11;" vertex="1" parent="aubPzzWPTt32pyCIXX7w-94">
          <mxGeometry x="24" width="111" height="22" as="geometry">
            <mxRectangle width="111" height="22" as="alternateBounds" />
          </mxGeometry>
        </mxCell>
        <mxCell id="aubPzzWPTt32pyCIXX7w-97" value="cod_ubi" style="curved=1;startArrow=ERmandOne;startSize=10;;endArrow=ERmany;endSize=10;;exitX=0;exitY=0.88;entryX=0.5;entryY=0.01;rounded=0;" edge="1" parent="1" source="aubPzzWPTt32pyCIXX7w-68" target="aubPzzWPTt32pyCIXX7w-61">
          <mxGeometry relative="1" as="geometry">
            <Array as="points">
              <mxPoint x="213" y="1390" />
            </Array>
          </mxGeometry>
        </mxCell>
        <mxCell id="aubPzzWPTt32pyCIXX7w-98" value="cod_state" style="curved=1;startArrow=ERmandOne;startSize=10;;endArrow=ERmany;endSize=10;;exitX=0.81;exitY=1;entryX=0.5;entryY=0.01;rounded=0;" edge="1" parent="1" source="aubPzzWPTt32pyCIXX7w-68" target="aubPzzWPTt32pyCIXX7w-47">
          <mxGeometry relative="1" as="geometry">
            <Array as="points">
              <mxPoint x="457" y="1390" />
            </Array>
          </mxGeometry>
        </mxCell>
        <mxCell id="aubPzzWPTt32pyCIXX7w-99" value="uploadedat" style="curved=1;startArrow=ERmandOne;startSize=10;;endArrow=ERmany;endSize=10;;exitX=0.5;exitY=1;entryX=0.3;entryY=0;rounded=0;" edge="1" parent="1" source="aubPzzWPTt32pyCIXX7w-34" target="aubPzzWPTt32pyCIXX7w-21">
          <mxGeometry relative="1" as="geometry">
            <Array as="points">
              <mxPoint x="-220" y="1132" />
            </Array>
          </mxGeometry>
        </mxCell>
        <mxCell id="aubPzzWPTt32pyCIXX7w-100" value="cod_user" style="curved=1;startArrow=ERmandOne;startSize=10;;endArrow=ERmany;endSize=10;;exitX=1;exitY=0.76;entryX=0.5;entryY=0;rounded=0;" edge="1" parent="1" source="aubPzzWPTt32pyCIXX7w-87" target="aubPzzWPTt32pyCIXX7w-68">
          <mxGeometry relative="1" as="geometry">
            <Array as="points">
              <mxPoint x="381" y="1132" />
            </Array>
          </mxGeometry>
        </mxCell>
        <mxCell id="aubPzzWPTt32pyCIXX7w-101" value="cod_description" style="curved=1;startArrow=ERmandOne;startSize=10;;endArrow=ERmany;endSize=10;;exitX=0.64;exitY=1;entryX=0.5;entryY=0;rounded=0;" edge="1" parent="1" source="aubPzzWPTt32pyCIXX7w-87" target="aubPzzWPTt32pyCIXX7w-54">
          <mxGeometry relative="1" as="geometry">
            <Array as="points">
              <mxPoint x="119" y="1132" />
            </Array>
          </mxGeometry>
        </mxCell>
        <mxCell id="aubPzzWPTt32pyCIXX7w-102" value="cod_date" style="curved=1;startArrow=ERmandOne;startSize=10;;endArrow=ERmany;endSize=10;;exitX=0;exitY=0.97;entryX=0.8;entryY=0;rounded=0;" edge="1" parent="1" source="aubPzzWPTt32pyCIXX7w-87" target="aubPzzWPTt32pyCIXX7w-21">
          <mxGeometry relative="1" as="geometry">
            <Array as="points">
              <mxPoint x="-96" y="1132" />
            </Array>
          </mxGeometry>
        </mxCell>
      </root>
    </mxGraphModel>
  </diagram>
</mxfile>
